<svg xmlns="http://www.w3.org/2000/svg" width="512" height="512" viewBox="0 0 512 512">
  <!-- 背景圆形 -->
  <circle cx="256" cy="256" r="256" fill="#3498db"/>
  
  <!-- 地图标记 -->
  <path d="M256 120c-20 0-36 16-36 36v160c0 20 16 36 36 36s36-16 36-36V156c0-20-16-36-36-36z" fill="#e74c3c"/>
  <path d="M256 100l-40 40v180l40 40 40-40V140l-40-40z" fill="#ffffff" opacity="0.3"/>
  <circle cx="256" cy="156" r="16" fill="#ffffff"/>
  
  <!-- 时间线 -->
  <line x1="120" y1="256" x2="392" y2="256" stroke="#ffffff" stroke-width="16" stroke-linecap="round"/>
  <circle cx="160" cy="256" r="12" fill="#ffffff"/>
  <circle cx="256" cy="256" r="12" fill="#ffffff"/>
  <circle cx="352" cy="256" r="12" fill="#ffffff"/>
  
  <!-- 地球轮廓 -->
  <circle cx="256" cy="256" r="180" stroke="#ffffff" stroke-width="8" fill="none" opacity="0.5"/>
  <circle cx="256" cy="256" r="120" stroke="#ffffff" stroke-width="4" fill="none" opacity="0.3"/>
</svg>